<svg xmlns="http://www.w3.org/2000/svg" width="3873" height="1200" viewBox="0 0 3873 1200" version="1.1"><path d="M 970.027 1.581 C 884.758 10.870, 805.787 49.239, 746.420 110.222 C 717.911 139.507, 698.517 166.935, 680.465 203.500 C 675.412 213.734, 615.313 357.616, 529.468 565 C 451.036 754.475, 384.592 913.775, 381.814 919 C 357.754 964.255, 315.767 997.400, 266.510 1010.024 C 247.753 1014.831, 241.916 1015.504, 219.500 1015.443 C 200.703 1015.392, 197.188 1015.107, 186 1012.728 C 179.125 1011.267, 169.225 1008.683, 164 1006.987 C 150.794 1002.700, 126.328 990.331, 115.088 982.259 C 104.223 974.457, 88.495 959.831, 80.887 950.453 C 77.994 946.889, 75.324 944.316, 74.953 944.736 C 74.122 945.676, -0 1124.761, -0 1125.828 C -0 1126.840, 19.091 1140.196, 30.788 1147.366 C 75.970 1175.064, 128.671 1192.830, 182.378 1198.470 C 201.502 1200.479, 239.498 1200.479, 258.622 1198.470 C 364.170 1187.386, 458.279 1132.386, 520.576 1045.378 C 529.960 1032.272, 542.286 1011.381, 550.004 995.500 C 553.746 987.800, 620.806 826.925, 699.026 638 C 777.246 449.075, 843.487 290, 846.230 284.500 C 871.806 233.200, 920.703 196.929, 978.500 186.384 C 994.156 183.528, 1026.698 183.761, 1042 186.839 C 1084.558 195.401, 1123.068 217.914, 1148.657 249.192 C 1154.224 255.997, 1154.387 256.107, 1155.539 253.831 C 1156.188 252.549, 1173.254 211.534, 1193.464 162.687 C 1228.392 78.265, 1230.117 73.801, 1228.354 72.423 C 1222.559 67.892, 1194.005 49.443, 1185.333 44.627 C 1143.006 21.120, 1094.268 6.180, 1043.144 1.041 C 1028.892 -0.392, 985.172 -0.069, 970.027 1.581" stroke="none" fill="#0464fc" fill-rule="evenodd"/><path d="M 3001 508 L 3001 600 2961.500 600 L 2922 600 2922 658.500 L 2922 717 2961.500 717 L 3001 717 3001.015 843.250 C 3001.023 914.992, 3001.461 976.949, 3002.028 986.753 C 3005.191 1041.350, 3020.178 1080.429, 3048.922 1109.030 C 3083.757 1143.690, 3138.677 1159.149, 3212.500 1155.076 C 3244.036 1153.336, 3270.769 1148.655, 3290.750 1141.374 L 3298 1138.732 3298 1072.466 L 3298 1006.201 3286.750 1012.004 C 3266.028 1022.693, 3246.973 1027.282, 3223 1027.356 C 3212.062 1027.390, 3206.903 1026.962, 3202 1025.615 C 3186.584 1021.380, 3173.266 1011.076, 3167.148 998.650 C 3160.806 985.766, 3161.036 991.449, 3161.017 847.750 L 3161 717 3225 717 L 3289 717 3289 658.500 L 3289 600 3225 600 L 3161 600 3161 508 L 3161 416 3081 416 L 3001 416 3001 508 M 3368 783 L 3368 1150 3447.462 1150 L 3526.924 1150 3527.282 992.250 C 3527.656 827.742, 3527.582 830.610, 3532.016 809.241 C 3537.616 782.254, 3549.917 758.440, 3564.150 747.030 C 3577.013 736.718, 3592.884 728.801, 3607.609 725.350 C 3618.370 722.827, 3639.664 722.856, 3649.500 725.406 C 3685.511 734.741, 3708.533 764.885, 3712.904 808.424 C 3713.650 815.864, 3714 872.066, 3714 984.674 L 3714 1150 3793.529 1150 L 3873.059 1150 3872.728 958.250 C 3872.423 781.339, 3872.261 765.571, 3870.635 754.500 C 3863.266 704.348, 3848.333 671.063, 3821.060 644 C 3798.466 621.579, 3775.191 608.360, 3744.500 600.516 C 3725.295 595.608, 3715.431 594.531, 3690 594.568 C 3652.536 594.622, 3623.868 600.530, 3597.939 613.542 C 3570.896 627.113, 3546.595 651.973, 3531.550 681.457 L 3527 690.374 3527 553.187 L 3527 416 3447.500 416 L 3368 416 3368 783 M 2019 591.597 C 2017.075 591.822, 2011 592.480, 2005.500 593.059 C 1992.794 594.397, 1973.496 598.231, 1960 602.098 C 1877.140 625.839, 1812.545 693.843, 1786.568 784.684 C 1771.817 836.271, 1770.012 904.894, 1781.983 959 C 1797.615 1029.649, 1838.892 1089.186, 1895.702 1123.026 C 1924.209 1140.008, 1960.299 1151.535, 2001.035 1156.669 C 2020.047 1159.066, 2068.330 1159.056, 2086.500 1156.653 C 2150.241 1148.220, 2196.917 1125.977, 2235.849 1085.480 C 2275.716 1044.009, 2301.034 990.356, 2309.924 928.500 C 2318.144 871.309, 2313.772 813.356, 2297.553 764.500 C 2284.168 724.182, 2265.332 692.809, 2237 663.647 C 2216.748 642.801, 2199.157 629.949, 2174.500 617.983 C 2148.315 605.276, 2123.159 597.969, 2090 593.440 C 2079.058 591.945, 2027.483 590.607, 2019 591.597 M 2607 591.663 C 2565.918 595.690, 2537.526 603.121, 2508.500 617.443 C 2483.120 629.966, 2464.516 643.324, 2444.452 663.429 C 2399.690 708.282, 2373.526 764.145, 2364.330 834.500 C 2361.765 854.123, 2361.758 909.445, 2364.319 928.500 C 2372.968 992.867, 2396.605 1044.282, 2436.802 1086.161 C 2474.881 1125.835, 2523.925 1148.550, 2589 1156.654 C 2606.021 1158.774, 2653.298 1159.096, 2669.500 1157.203 C 2752.174 1147.543, 2810.113 1113.147, 2853.502 1047.968 C 2868.837 1024.932, 2883.732 990.803, 2890.965 962.131 C 2903.744 911.471, 2905.019 849.989, 2894.368 798 C 2883.833 746.572, 2859.886 700.071, 2825.409 664.091 C 2784.767 621.677, 2730.937 597.720, 2663.500 592.033 C 2652.465 591.102, 2615.211 590.858, 2607 591.663 M 1187 595.121 C 1174.913 596.336, 1157.993 599.777, 1147.500 603.153 C 1134.994 607.177, 1116.185 616.600, 1105.586 624.150 C 1088.797 636.110, 1071.781 655.232, 1061.288 673.930 L 1056.500 682.462 1056.239 641.231 L 1055.978 600 976.489 600 L 897 600 897 875 L 897 1150 976.463 1150 L 1055.925 1150 1056.269 990.250 C 1056.644 815.886, 1056.398 823.536, 1062.453 798.411 C 1067.565 777.196, 1074.934 762.950, 1087.082 750.799 C 1099.378 738.499, 1114.129 729.767, 1130.002 725.392 C 1139.159 722.868, 1160.196 722.853, 1168.500 725.365 C 1197.639 734.178, 1215.405 761.058, 1219.953 803.211 C 1220.640 809.583, 1221 870.854, 1221 981.461 L 1221 1150 1300.500 1150 L 1380 1150 1380.021 1001.750 C 1380.032 917.347, 1380.458 847.040, 1381.010 838.500 C 1384.487 784.665, 1398.673 755.004, 1430.123 735.807 C 1456.804 719.522, 1489.689 718.896, 1511.124 734.266 C 1526.575 745.345, 1535.981 761.932, 1542.289 789.223 C 1544.432 798.492, 1544.434 798.646, 1544.741 974.250 L 1545.048 1150 1625.024 1150 L 1705 1150 1704.986 974.250 C 1704.979 874.246, 1704.553 790.186, 1703.998 779.209 C 1702.925 757.950, 1701.198 744.393, 1697.349 727 C 1681.940 657.363, 1636.963 611.339, 1571.380 598.096 C 1540.544 591.869, 1500.202 593.247, 1471.500 601.508 C 1434.120 612.267, 1402.295 634.448, 1382.254 663.708 C 1376.551 672.035, 1368.805 686.192, 1365.953 693.500 L 1364.783 696.500 1363.742 694 C 1354.078 670.785, 1342.761 652.796, 1328.726 638.338 C 1303.901 612.765, 1273.436 599.054, 1232.576 595.066 C 1220.072 593.846, 1199.432 593.870, 1187 595.121 M 2022.624 718.583 C 2006.305 722.213, 1994.775 728.373, 1982.694 739.915 C 1961.726 759.948, 1947.820 793.297, 1941.796 838 C 1939.796 852.842, 1940.124 901.508, 1942.325 916.500 C 1948.209 956.577, 1961.649 989.150, 1980.435 1008.864 C 1991.447 1020.420, 2003.364 1027.511, 2019.711 1032.236 C 2026.503 1034.199, 2029.804 1034.487, 2045.500 1034.487 C 2061.275 1034.487, 2064.478 1034.205, 2071.415 1032.201 C 2086.719 1027.782, 2098.294 1020.736, 2109.117 1009.252 C 2132.882 984.037, 2146.162 941.945, 2147.690 887 C 2149.275 829.962, 2140.123 784.831, 2121.124 756.002 C 2115.752 747.851, 2104.625 736.569, 2096.879 731.420 C 2089.287 726.373, 2081.012 722.703, 2070.500 719.723 C 2060.931 717.009, 2032.717 716.337, 2022.624 718.583 M 2611 718.461 C 2596.917 721.483, 2586.355 726.419, 2575.400 735.100 C 2548.181 756.668, 2530.313 803.688, 2528.127 859.500 C 2526.251 907.381, 2532.586 946.284, 2547.324 977.397 C 2561.423 1007.160, 2578.957 1023.464, 2605.712 1031.688 C 2613.834 1034.185, 2615.865 1034.394, 2632.500 1034.445 C 2652.666 1034.507, 2658.670 1033.432, 2671.840 1027.406 C 2698.442 1015.233, 2716.988 988.826, 2727.606 948.005 C 2739.698 901.517, 2738.119 831.948, 2723.988 788.611 C 2711.810 751.262, 2691.779 729.805, 2660.297 720.387 C 2652.613 718.088, 2649.349 717.711, 2634.500 717.411 C 2622.556 717.169, 2615.567 717.481, 2611 718.461" stroke="none" fill="#fcfcfc" fill-rule="evenodd"/></svg>